<svg xmlns="http://www.w3.org/2000/svg" width="52px" height="52px" viewBox="0 0 64 64"><path fill="white" d="M51.6 22.6c-.7-.1-1.3-.4-2-.6c.1-.4.1-.8.3-1.4c1.4-7.2.4-12.9-2.8-14.9c-3.2-1.8-8.4.1-13.6 4.6c-.4.4-1.1.8-1.5 1.4c-.3-.3-.7-.6-1-1c-5.5-4.9-10.9-6.9-14.3-5c-3.2 1.8-4.2 7.3-2.8 14c.1.7.3 1.4.4 2c-.7.1-1.5.4-2.2.7C5.6 24.7 1 28.4 1 31.9c0 3.8 4.9 7.6 11.6 9.8c.6.1 1.1.4 1.7.4c-.1.7-.4 1.4-.4 2.2c-1.3 6.6-.3 11.9 2.9 13.7c3.2 2 8.8 0 14-4.8c.4-.4.8-.7 1.3-1.1c.4.4 1.1 1 1.7 1.4c5 4.5 10.2 6.3 13.5 4.5c3.2-2 4.3-7.6 2.9-14.6c-.1-.4-.1-1.1-.4-1.7c.4-.1.7-.1 1.1-.4c7-2.1 12.1-5.9 12.1-9.7c-.1-3.1-4.9-6.7-11.4-9M35.2 12.4c4.5-3.9 8.7-5.3 10.7-4.3c2 1.1 2.8 5.9 1.5 12.2c-.1.4-.1.7-.3 1.3c-2.7-.6-5.3-1.1-8.1-1.3c-1.5-2.2-3.2-4.5-5-6.3c.4-.8.8-1.2 1.2-1.6M21.3 38.3c.6 1.1 1.3 2.1 2 3.1c-2-.1-3.8-.4-5.6-.8c.4-1.7 1.1-3.5 2-5.3c.4.9 1.1 2.1 1.6 3m-3.6-14.4c1.7-.4 3.5-.7 5.5-1c-.7 1-1.3 2-1.8 3.1s-1.1 2-1.7 3.2c-.9-1.9-1.4-3.6-2-5.3m3.2 8.3c.7-1.7 1.7-3.2 2.7-4.9s2-3.2 2.9-4.8c1.8-.1 3.6-.1 5.5-.1c1.8 0 3.8.1 5.5.1c1.1 1.5 2 3.1 2.9 4.6c1 1.5 1.8 3.2 2.7 4.9c-.7 1.7-1.7 3.2-2.7 4.9s-2 3.2-2.9 4.8c-1.8.1-3.6.1-5.6.1s-3.8-.1-5.5-.1c-1.1-1.5-2-3.1-2.9-4.8s-1.7-3-2.6-4.7m21.8 6.1c.6-1.1 1.1-2.1 1.7-3.2c.7 1.7 1.4 3.5 2 5.3c-1.8.4-3.8.7-5.8 1c.8-1 1.5-2.1 2.1-3.1m1.8-9.2c-.6-1.1-1.1-2.1-1.7-3.2s-1.3-2-1.8-2.9c2 .3 3.8.6 5.5 1c-.6 1.7-1.3 3.4-2 5.1M32 15.6c1.3 1.4 2.4 2.8 3.5 4.3q-3.6-.15-7.2 0c1.3-1.6 2.6-3 3.7-4.3M18 8.2c2-1.1 6.6.4 11.2 4.8c.3.3.6.6 1 .8c-1.8 2-3.5 4.2-5.2 6.3c-2.7.3-5.5.7-8.1 1.3c-.1-.6-.3-1.3-.4-1.8c-1.1-5.9-.4-10.3 1.5-11.4M15.2 40c-.4-.1-1-.3-1.5-.4c-2.7-.7-5.5-2.1-7.7-3.8c-1.4-1-2.1-2.2-2.4-3.6c0-2.2 3.9-5 9.4-7c.7-.3 1.4-.4 2.1-.7c.8 2.7 1.8 5.2 2.9 7.7c-1 2.5-2.1 5-2.8 7.8m13.9 11.7q-3 2.7-6.9 4.2c-1.4.7-2.9.7-4.2.1c-2-1.1-2.7-5.3-1.7-11.1c.1-.7.3-1.4.4-2c2.7.6 5.5 1 8.1 1.1c1.5 2.2 3.4 4.5 5.2 6.5c-.1.6-.5.9-.9 1.2m3-2.8c-1.3-1.4-2.4-2.8-3.6-4.3c1.1 0 2.2.1 3.5.1s2.5 0 3.6-.1c-1.1 1.3-2.2 2.7-3.5 4.3m15.8 3.5c-.1 1.4-.8 2.9-2 3.8c-2 1.1-6-.3-10.4-4.2c-.4-.4-1-.8-1.5-1.4c1.8-2 3.5-4.2 5-6.5c2.8-.1 5.5-.7 8.1-1.3c.1.4.1 1 .3 1.4c.7 2.8.7 5.6.5 8.2m2.2-12.9c-.3.1-.7.1-1.1.3c-.8-2.7-2-5.2-3.1-7.7c1.1-2.4 2.1-5 2.9-7.6c.7.1 1.3.4 1.8.6c5.6 2 9.5 4.8 9.5 7c.1 2.3-4 5.4-10 7.4M32 37.6c3.1 0 5.5-2.5 5.5-5.5S35 26.6 32 26.6c-2.9 0-5.5 2.5-5.5 5.5s2.4 5.5 5.5 5.5"/></svg>